{"title":"Secret City - S01E04 - Falling Hard","uid":15108614,"size":1224569785,"categoryP":"video","categoryS":"tv_shows","magnet":"?xt=urn:btih:c7b4e5dc2a29fa365956263705afabeee6f02ed5&amp;dn=Secret+City+-+S01E04+-+Falling+Hard&amp;tr=udp%3A%2F%2Ftracker.leechers-paradise.org%3A6969&amp;tr=udp%3A%2F%2Fzer0day.ch%3A1337&amp;tr=udp%3A%2F%2Fopen.demonii.com%3A1337&amp;tr=udp%3A%2F%2Ftracker.coppersurfer.tk%3A6969&amp;tr=udp%3A%2F%2Fexodus.desync.com%3A6969","seeders":4,"leechers":0,"uploader":"Bullrout","files":1,"time":1466987730,"description":"Secret City - S01E04 - Falling Hard\r\n\r\nA sophisticated cyber attack cripples Australia's air traffic control for 13 terrifying minutes. All the evidence points to China seeking vengeance for their dead sailor.\r\n\r\n\r\nComplete name                            : Secret City - S01E04 - Falling Hard.mkv\r\nFormat                                   : Matroska\r\nFormat version                           : Version 4 / Version 2\r\nFile size                                : 1.14 GiB\r\nDuration                                 : 50mn 24s\r\nOverall bit rate mode                    : Variable\r\nOverall bit rate                         : 3 239 Kbps\r\nEncoded date                             : UTC 2016-06-26 11:50:19\r\nWriting application                      : mkvmerge v9.2.0 ('Photograph') 64bit\r\nWriting library                          : libebml v1.3.3 + libmatroska v1.4.4\r\n\r\nVideo\r\nID                                       : 2\r\nFormat                                   : AVC\r\nFormat/Info                              : Advanced Video Codec\r\nFormat profile                           :   \r\nFormat settings, CABAC                   : Yes\r\nFormat settings, ReFrames                : 3 frames\r\nCodec ID                                 : V_MPEG4/ISO/AVC\r\nDuration                                 : 50mn 24s\r\nBit rate mode                            : Variable\r\nBit rate                                 : 2 853 Kbps\r\nMaximum bit rate                         : 3 000 Kbps\r\nWidth                                    : 1 280 pixels\r\nHeight                                   : 640 pixels\r\nDisplay aspect ratio                     : 2.000\r\nFrame rate mode                          : Constant\r\nFrame rate                               : 25.000 fps\r\nStandard                                 : PAL\r\nColor space                              : YUV\r\nChroma subsampling                       : 4:2:0\r\nBit depth                                : 8 bits\r\nScan type                                : Progressive\r\nBits/(Pixel*Frame)                       : 0.139\r\nStream size                              : 1.00 GiB (88%)\r\nWriting library                          : x264 core 112\r\nDefault                                  : Yes\r\nForced                                   : No\r\nColor range                              : Limited\r\nColor primaries                          : BT.709\r\nTransfer characteristics                 : BT.709\r\nMatrix coefficients                      : BT.709\r\n\r\nAudio\r\nID                                       : 1\r\nFormat                                   : AC-3\r\nFormat/Info                              : Audio Coding 3\r\nMode extension                           : CM (complete main)\r\nFormat settings, Endianness              : Big\r\nCodec ID                                 : A_AC3\r\nDuration                                 : 50mn 24s\r\nBit rate mode                            : Constant\r\nBit rate                                 : 384 Kbps\r\nChannel(s)                               : 6 channels\r\nChannel positions                        : Front: L C R, Side: L R, LFE\r\nSampling rate                            : 48.0 KHz\r\nFrame rate                               : 31.250 fps (1536 spf)\r\nCompression mode                         : Lossy\r\nStream size                              : 138 MiB (12%)\r\nDefault                                  : Yes\r\nForced                                   : No","torrent":{"xt":"urn:btih:c7b4e5dc2a29fa365956263705afabeee6f02ed5","amp;dn":"Secret+City+-+S01E04+-+Falling+Hard","amp;tr":["udp%3A%2F%2Ftracker.leechers-paradise.org%3A6969","udp%3A%2F%2Fzer0day.ch%3A1337","udp%3A%2F%2Fopen.demonii.com%3A1337","udp%3A%2F%2Ftracker.coppersurfer.tk%3A6969","udp%3A%2F%2Fexodus.desync.com%3A6969"],"infoHash":"c7b4e5dc2a29fa365956263705afabeee6f02ed5","infoHashBuffer":{"type":"Buffer","data":[199,180,229,220,42,41,250,54,89,86,38,55,5,175,171,238,230,240,46,213]},"announce":[],"urlList":[]}}